<svg height="64px" width="64px" version="1.1" id="_x32_" xmlns="http://www.w3.org/2000/svg" xmlns:xlink="http://www.w3.org/1999/xlink" viewBox="0 0 512.00 512.00" xml:space="preserve" fill="#ffffff" stroke="#ffffff">
    <g id="SVGRepo_bgCarrier" stroke-width="0" transform="translate(0,0), scale(1)"></g>
    <g id="SVGRepo_tracerCarrier" stroke-linecap="round" stroke-linejoin="round" stroke="#CCCCCC" stroke-width="3.072"></g>
    <g id="SVGRepo_iconCarrier">
        <style type="text/css">
            .st0{fill:#FFFFFF;}
        </style>
        <g>
            <path class="st0" d="M480.172,261.756c-0.708-1.853-1.059-3.804-1.059-5.756c0-1.952,0.351-3.904,1.059-5.756l18.696-49.082 c1.614-4.24,2.402-8.646,2.395-12.992c0.007-12.041-5.981-23.658-16.533-30.552L440.743,128.9 c-3.315-2.163-5.729-5.491-6.762-9.315l-13.727-50.716c-4.334-15.97-18.808-26.952-35.216-26.952c-0.615,0-1.23,0.014-1.852,0.046 l-52.31,2.614l0,0l-0.919,0.02c-3.698,0-7.277-1.257-10.162-3.572L278.89,8.078c-6.662-5.379-14.8-8.085-22.884-8.078 c-8.091-0.007-16.229,2.699-22.904,8.085l0,0l-40.898,32.939c-2.878,2.316-6.464,3.572-10.162,3.572l-0.834-0.02l-52.647-2.627 l0.33,0.02c-0.722-0.046-1.363-0.053-1.925-0.053c-16.407,0-30.882,10.982-35.215,26.952l-13.728,50.716 c-1.032,3.824-3.447,7.152-6.762,9.315l-43.987,28.719c-10.552,6.894-16.546,18.517-16.539,30.558c0,4.34,0.781,8.746,2.388,12.98 l18.709,49.088c0.708,1.852,1.059,3.804,1.059,5.756c0,1.945-0.351,3.903-1.059,5.756l-18.702,49.088 c-1.614,4.227-2.395,8.633-2.395,12.973c-0.006,12.04,5.981,23.665,16.539,30.571l43.987,28.719 c3.315,2.163,5.729,5.478,6.762,9.308l13.728,50.702c4.333,15.977,18.808,26.958,35.208,26.965c0.569-0.007,1.178-0.013,1.82-0.046 l1.687-0.086l50.789-2.534l0.099-0.007l0.715-0.014c3.678,0,7.251,1.257,10.135,3.58l40.905,32.952 c6.668,5.372,14.806,8.078,22.897,8.071c8.084,0.007,16.222-2.699,22.89-8.071l40.904-32.952c2.885-2.329,6.458-3.58,10.135-3.58 l0.788,0.02l0.926,0.046l51.304,2.56l0.351,0.02c0.542,0.02,1.118,0.032,1.733,0.032c16.4,0,30.882-10.975,35.216-26.958 l13.727-50.702c1.032-3.83,3.447-7.145,6.755-9.308l43.994-28.719c10.552-6.906,16.54-18.524,16.533-30.564 c0.007-4.34-0.781-8.746-2.395-12.986L480.172,261.756z M473.609,337.373l-43.98,28.718c-7.496,4.889-12.927,12.372-15.269,21.018 l-13.728,50.703c-1.906,7.079-8.343,11.947-15.594,11.947l-0.9-0.026l-52.37-2.613h0.027c-0.595-0.033-1.211-0.047-1.86-0.047 c-8.309-0.006-16.393,2.839-22.89,8.078l-40.905,32.953c-2.97,2.388-6.529,3.572-10.135,3.572c-3.612,0-7.171-1.184-10.142-3.572 l-40.905-32.953c-6.496-5.233-14.58-8.078-22.89-8.078c-0.543,0-1.164,0.014-1.832,0.054v-0.007l-52.463,2.62h0.014l-0.827,0.013 c-7.237,0.006-13.681-4.862-15.587-11.941L97.647,387.11c-2.342-8.647-7.774-16.129-15.276-21.024l-43.981-28.712 c-4.677-3.05-7.323-8.21-7.33-13.556c0-1.918,0.344-3.85,1.058-5.736l18.703-49.088c1.594-4.181,2.394-8.587,2.394-12.993 c0-4.406-0.8-8.812-2.394-13l-18.703-49.075c-0.714-1.899-1.058-3.831-1.058-5.75c0.007-5.345,2.646-10.492,7.323-13.542 l43.994-28.718c7.496-4.903,12.927-12.385,15.269-21.025l13.727-50.709c1.906-7.072,8.35-11.948,15.594-11.941l0.708,0.014 l0.225,0.013l52.337,2.613h0.046l1.76,0.04c8.316,0.007,16.4-2.838,22.91-8.064l40.905-32.953l-6.37-7.912l6.377,7.905 c2.971-2.395,6.53-3.572,10.142-3.572c3.606,0,7.165,1.184,10.135,3.572l40.912,32.953c6.496,5.226,14.581,8.071,22.891,8.064 c0.543,0,1.164-0.014,1.832-0.054l0.301-0.02l52.462-2.62c0.722-0.04,1.347-0.054,1.905-0.054c7.244,0,13.681,4.876,15.587,11.941 l13.727,50.709c2.342,8.646,7.773,16.13,15.276,21.025l43.981,28.718c4.677,3.05,7.323,8.197,7.33,13.55 c-0.006,1.918-0.351,3.843-1.058,5.736l-18.69,49.088C471.208,328.562,470.409,332.967,470.409,337.373z"></path>
        </g>
    </g>
</svg>
